<svg xmlns="http://www.w3.org/2000/svg" width="500" height="400" viewBox="0 0 500 400">
  <defs>
    <!-- Single paw print shape -->
    <g id="paw">
      <!-- Main pad -->
      <ellipse cx="20" cy="28" rx="14" ry="12"/>
      <!-- Toe pads -->
      <ellipse cx="8" cy="10" rx="6" ry="7"/>
      <ellipse cx="20" cy="5" rx="5" ry="6"/>
      <ellipse cx="32" cy="10" rx="6" ry="7"/>
    </g>
  </defs>
  
  <!-- Sparser walking pattern -->
  <!-- Row 1 -->
  <use href="#paw" fill="#1F2A44" opacity="0.06" transform="translate(40, 30) rotate(-25, 20, 20)"/>
  <use href="#paw" fill="#1F2A44" opacity="0.07" transform="translate(250, 70) rotate(-15, 20, 20) scale(-1, 1) translate(-40, 0)"/>
  <use href="#paw" fill="#1F2A44" opacity="0.05" transform="translate(420, 40) rotate(-20, 20, 20)"/>
  
  <!-- Row 2 -->
  <use href="#paw" fill="#1F2A44" opacity="0.07" transform="translate(120, 200) rotate(-20, 20, 20)"/>
  <use href="#paw" fill="#1F2A44" opacity="0.06" transform="translate(350, 180) rotate(-15, 20, 20) scale(-1, 1) translate(-40, 0)"/>
  
  <!-- Row 3 -->
  <use href="#paw" fill="#1F2A44" opacity="0.05" transform="translate(30, 340) rotate(-20, 20, 20)"/>
  <use href="#paw" fill="#1F2A44" opacity="0.07" transform="translate(220, 360) rotate(-10, 20, 20) scale(-1, 1) translate(-40, 0)"/>
  <use href="#paw" fill="#1F2A44" opacity="0.06" transform="translate(450, 320) rotate(-25, 20, 20)"/>
</svg>
